<?xml version="1.0" encoding="UTF-8" standalone="no"?>
<svg
   xmlns:dc="http://purl.org/dc/elements/1.1/"
   xmlns:cc="http://creativecommons.org/ns#"
   xmlns:rdf="http://www.w3.org/1999/02/22-rdf-syntax-ns#"
   xmlns:svg="http://www.w3.org/2000/svg"
   xmlns="http://www.w3.org/2000/svg"
   xmlns:sodipodi="http://sodipodi.sourceforge.net/DTD/sodipodi-0.dtd"
   xmlns:inkscape="http://www.inkscape.org/namespaces/inkscape"
   viewBox="0 0 282 6"
   class="mx-auto"
   version="1.1"
   id="svg4"
   sodipodi:docname="horizontal-line.svg"
   inkscape:version="0.92.3 (2405546, 2018-03-11)">
  <metadata
     id="metadata10">
    <rdf:RDF>
      <cc:Work
         rdf:about="">
        <dc:format>image/svg+xml</dc:format>
        <dc:type
           rdf:resource="http://purl.org/dc/dcmitype/StillImage" />
      </cc:Work>
    </rdf:RDF>
  </metadata>
  <defs
     id="defs8" />
  <sodipodi:namedview
     pagecolor="#ffffff"
     bordercolor="#666666"
     borderopacity="1"
     objecttolerance="10"
     gridtolerance="10"
     guidetolerance="10"
     inkscape:pageopacity="0"
     inkscape:pageshadow="2"
     inkscape:window-width="1299"
     inkscape:window-height="713"
     id="namedview6"
     showgrid="false"
     inkscape:zoom="1.4663121"
     inkscape:cx="132.98783"
     inkscape:cy="-84.820978"
     inkscape:window-x="67"
     inkscape:window-y="27"
     inkscape:window-maximized="1"
     inkscape:current-layer="svg4" />
  <path
     d="M140.49 2.14a.934.934 0 0 1 .014-.008C142.984.715 145.486 0 148 0c2.514 0 5.017.715 7.496 2.132l.015.008C157.693 3.385 159.852 4 162 4c2.148 0 4.307-.615 6.49-1.86a.934.934 0 0 1 .014-.008C170.984.715 173.486 0 176 0c2.514 0 5.017.715 7.496 2.132l.015.008C185.693 3.385 187.852 4 190 4c2.148 0 4.307-.615 6.49-1.86a.934.934 0 0 1 .014-.008C198.983.715 201.486 0 204 0c2.514 0 5.017.715 7.496 2.132l.015.008C213.693 3.385 215.852 4 218 4c2.148 0 4.307-.615 6.49-1.86a.934.934 0 0 1 .014-.008C226.983.715 229.486 0 232 0c2.514 0 5.017.715 7.496 2.132l.015.008C241.693 3.385 243.852 4 246 4c2.147 0 4.307-.615 6.49-1.86a.934.934 0 0 1 .014-.008C254.983.715 257.486 0 260 0c2.514 0 5.017.715 7.496 2.132l.015.008C269.693 3.385 271.852 4 274 4c2.152 0 4.316-.618 6.504-1.868a1 1 0 0 1 .992 1.736C279.016 5.285 276.514 6 274 6c-2.514 0-5.017-.715-7.496-2.132a.934.934 0 0 1-.015-.008C264.307 2.615 262.147 2 260 2c-2.147 0-4.306.615-6.488 1.86a.934.934 0 0 1-.015.008C251.016 5.285 248.514 6 246 6c-2.514 0-5.017-.715-7.496-2.132a.934.934 0 0 1-.015-.008C236.307 2.615 234.148 2 232 2c-2.147 0-4.306.615-6.488 1.86a.934.934 0 0 1-.015.008C223.016 5.285 220.514 6 218 6c-2.514 0-5.017-.715-7.496-2.132a.934.934 0 0 1-.015-.008C208.307 2.615 206.148 2 204 2c-2.147 0-4.306.615-6.488 1.86a.934.934 0 0 1-.015.008C195.016 5.285 192.514 6 190 6c-2.514 0-5.017-.715-7.496-2.132a.934.934 0 0 1-.015-.008C180.307 2.615 178.148 2 176 2c-2.148 0-4.307.615-6.49 1.86a.934.934 0 0 1-.014.008C167.016 5.285 164.514 6 162 6c-2.514 0-5.017-.715-7.496-2.132a.934.934 0 0 1-.015-.008C152.307 2.615 150.148 2 148 2c-2.148 0-4.307.615-6.49 1.86a.934.934 0 0 1-.014.008C139.016 5.285 136.514 6 134 6c-2.514 0-5.017-.715-7.496-2.132a.934.934 0 0 1-.015-.008C124.307 2.615 122.148 2 120 2c-2.148 0-4.307.615-6.49 1.86a.934.934 0 0 1-.014.008C111.016 5.285 108.514 6 106 6c-2.514 0-5.017-.715-7.496-2.132a.934.934 0 0 1-.015-.008C96.307 2.615 94.148 2 92 2c-2.148 0-4.307.615-6.49 1.86a.934.934 0 0 1-.014.008C83.017 5.285 80.514 6 78 6c-2.514 0-5.017-.715-7.496-2.132a.934.934 0 0 1-.015-.008C68.307 2.615 66.148 2 64 2c-2.148 0-4.307.615-6.49 1.86a.934.934 0 0 1-.014.008C55.017 5.285 52.514 6 50 6c-2.514 0-5.017-.715-7.496-2.132a.936.936 0 0 1-.015-.008C40.307 2.615 38.148 2 36 2c-2.147 0-4.307.615-6.49 1.86a.935.935 0 0 1-.014.008C27.017 5.285 24.514 6 22 6c-2.514 0-5.017-.715-7.496-2.132a.935.935 0 0 1-.015-.008C12.307 2.615 10.148 2 8 2c-2.152 0-4.316.618-6.504 1.868a1 1 0 0 1-.992-1.736C2.984.715 5.486 0 8 0c2.514 0 5.017.715 7.496 2.132l.015.008C17.693 3.385 19.853 4 22 4c2.147 0 4.306-.615 6.488-1.86a.935.935 0 0 1 .015-.008C30.984.715 33.486 0 36 0c2.514 0 5.017.715 7.496 2.132l.015.008C45.693 3.385 47.852 4 50 4c2.147 0 4.306-.615 6.488-1.86a.934.934 0 0 1 .015-.008C58.984.715 61.486 0 64 0c2.514 0 5.017.715 7.496 2.132l.015.008C73.693 3.385 75.852 4 78 4c2.147 0 4.306-.615 6.488-1.86a.934.934 0 0 1 .015-.008C86.984.715 89.486 0 92 0c2.514 0 5.017.715 7.496 2.132l.015.008C101.693 3.385 103.852 4 106 4c2.148 0 4.307-.615 6.49-1.86a.934.934 0 0 1 .014-.008C114.984.715 117.486 0 120 0c2.514 0 5.017.715 7.496 2.132l.015.008C129.693 3.385 131.852 4 134 4c2.148 0 4.307-.615 6.49-1.86z"
     fill="currentColor"
     fill-rule="nonzero"
     id="path2"
     style="fill:#2171b6;opacity:1;fill-opacity:1;stroke:#2171b6;stroke-opacity:1" />
</svg>
